<?xml version="1.0" standalone="no"?>
<!DOCTYPE svg PUBLIC "-//W3C//DTD SVG 20010904//EN"
 "http://www.w3.org/TR/2001/REC-SVG-20010904/DTD/svg10.dtd">
<svg version="1.0" xmlns="http://www.w3.org/2000/svg"
 width="400.000000pt" height="400.000000pt" viewBox="0 0 400.000000 400.000000"
 preserveAspectRatio="xMidYMid meet">
<metadata>
Created by potrace 1.16, written by Peter Selinger 2001-2019
</metadata>
<g transform="translate(0.000000,400.000000) scale(0.100000,-0.100000)"
fill="#000000" stroke="none">
<path d="M2837 3271 c-2 -11 -4 -38 -3 -60 2 -39 2 -40 -16 -24 -18 16 -19 16
-9 -10 7 -17 7 -27 1 -27 -6 0 -10 8 -11 18 0 10 -5 6 -11 -11 -7 -21 -7 -32
1 -40 6 -6 11 -16 11 -21 0 -6 -5 -4 -10 4 -7 11 -10 5 -10 -23 0 -23 4 -36
10 -32 6 3 10 1 10 -4 0 -6 -4 -11 -10 -11 -5 0 -10 -10 -11 -22 0 -22 -1 -22
-9 -3 l-9 20 0 -20 c0 -11 3 -26 8 -34 6 -9 5 -24 -2 -40 -15 -36 -15 -35 -32
-21 -24 20 -18 1 10 -32 27 -32 27 -50 0 -28 -11 9 -15 9 -15 1 0 -7 -5 -9
-11 -5 -8 4 -9 -1 -4 -16 6 -19 4 -22 -9 -17 -9 4 -16 2 -16 -3 0 -6 7 -10 16
-10 11 0 15 -6 11 -19 -2 -10 -1 -25 4 -32 4 -7 4 -20 -1 -29 -12 -23 38 -95
65 -95 11 1 19 6 17 13 -1 7 2 12 8 12 5 0 10 -4 10 -10 0 -5 8 -10 18 -11 14
0 14 -2 -3 -9 -17 -7 -17 -9 -2 -9 21 -1 22 -8 2 -27 -8 -9 -21 -12 -27 -9 -7
4 -3 -2 10 -13 27 -25 28 -35 3 -27 -15 5 -19 1 -18 -14 1 -15 4 -17 15 -9 9
8 16 8 24 0 9 -9 9 -12 -1 -12 -7 0 -10 -4 -6 -10 3 -5 13 -6 22 -3 11 4 14 3
9 -5 -4 -7 -17 -12 -29 -12 -17 0 -19 -2 -8 -9 11 -7 9 -11 -9 -21 -12 -6 -19
-14 -17 -17 3 -2 18 2 34 11 28 14 29 14 28 -4 -1 -11 -4 -22 -8 -26 -3 -4 1
-13 9 -22 9 -8 14 -25 12 -37 -4 -18 -1 -21 20 -17 14 3 28 -1 33 -9 14 -22
10 -33 -6 -19 -9 7 -19 10 -23 6 -4 -4 1 -12 11 -17 9 -6 17 -19 17 -29 0 -15
7 -20 28 -21 l27 -1 -30 -7 c-28 -6 -29 -8 -10 -18 11 -5 26 -8 33 -6 7 3 19
-1 28 -7 8 -7 18 -9 22 -5 4 4 1 10 -6 12 -6 3 -9 10 -6 15 4 6 2 8 -4 4 -6
-3 -13 -2 -17 4 -3 6 4 10 17 10 21 0 21 2 -10 30 -18 17 -27 30 -20 30 8 0
19 -5 26 -12 25 -25 24 4 -1 30 -30 31 -35 47 -13 39 8 -3 16 -1 18 5 5 13 28
2 28 -13 0 -6 -4 -7 -10 -4 -5 3 -10 1 -10 -4 0 -15 33 -14 49 2 10 10 11 9 6
-4 -4 -10 -2 -20 4 -24 6 -3 11 -11 11 -17 0 -6 -9 -3 -19 6 -19 17 -19 17
-14 -6 4 -19 3 -20 -7 -8 -10 13 -11 13 -7 0 2 -8 9 -15 15 -15 6 0 26 -17 45
-37 39 -43 53 -47 62 -18 3 11 11 20 16 20 6 0 7 -4 4 -10 -3 -5 -1 -10 4 -10
17 0 13 14 -9 40 -11 13 -20 30 -20 39 0 13 2 14 9 2 5 -8 19 -16 31 -18 l21
-3 -20 22 c-11 11 -18 24 -16 28 2 4 -4 24 -15 45 -22 43 -19 55 6 34 16 -13
16 -12 4 8 -8 12 -18 19 -22 17 -4 -3 -8 2 -8 12 0 14 7 16 39 11 33 -4 39 -2
34 11 -5 12 -1 14 19 9 17 -5 30 -2 38 8 10 13 9 15 -11 16 l-24 0 23 10 c13
5 29 6 34 2 7 -4 8 -1 4 6 -5 8 0 14 13 18 11 3 19 9 16 13 -3 4 5 37 16 74
20 63 20 67 4 117 -17 50 -18 51 -30 29 -15 -28 -20 -21 -38 58 -14 60 -14 62
4 57 16 -5 19 -1 19 29 0 19 -4 38 -10 41 -17 10 -11 25 8 18 12 -4 9 2 -9 19
-14 14 -36 29 -49 33 -15 5 -19 10 -11 15 16 9 -66 53 -86 46 -8 -3 -11 -1 -8
4 6 10 -15 15 -45 10 -8 -1 -25 -10 -38 -21 -14 -10 -29 -16 -34 -13 -12 7
-39 -16 -32 -27 6 -10 -9 -12 -19 -3 -10 10 14 64 36 79 12 8 33 15 47 16 22
1 20 2 -10 12 l-35 11 35 6 35 6 -32 6 c-20 5 -34 15 -38 28 -4 14 -12 19 -22
16 -12 -5 -14 -1 -11 18 5 24 4 25 -23 10 -33 -17 -37 -10 -11 19 16 19 16 20
-5 8 -13 -6 -23 -8 -23 -4 -1 4 -10 -3 -20 -16 -22 -25 -27 -13 -9 22 11 20
10 20 -16 -3 -28 -25 -28 -25 -22 -2 3 12 2 22 -3 22 -4 0 -10 -9 -13 -19z"/>
<path d="M1850 3195 c0 -5 7 -17 17 -27 10 -12 12 -18 4 -18 -7 0 -10 -4 -7
-9 3 -5 -1 -12 -10 -15 -8 -3 -13 -2 -10 3 3 4 -5 6 -19 4 -16 -4 -22 -10 -18
-21 5 -12 1 -14 -18 -9 -65 18 -75 19 -56 7 21 -14 22 -30 2 -30 -8 0 -15 -4
-15 -10 0 -5 5 -10 12 -10 6 0 3 -7 -8 -15 -18 -13 -18 -14 -1 -15 10 0 15 -4
12 -10 -3 -5 2 -10 12 -10 19 -1 53 -22 53 -34 0 -4 -13 0 -30 9 -42 22 -51
19 -13 -5 18 -11 40 -17 49 -13 12 4 15 2 12 -8 -3 -8 -1 -22 4 -31 6 -12 5
-18 -2 -18 -6 0 -13 7 -17 15 -3 9 -20 23 -37 32 -29 15 -30 15 -17 0 14 -18
5 -22 -18 -8 -7 5 -11 14 -7 20 5 7 1 8 -11 4 -15 -6 -16 -4 -6 8 11 13 8 15
-20 11 -17 -3 -25 -7 -17 -10 19 -6 122 -102 110 -102 -5 0 -12 5 -15 10 -4 6
-11 8 -16 4 -5 -3 -8 0 -7 6 5 19 -44 48 -92 53 l-45 6 25 -20 25 -21 -26 4
c-19 4 -25 0 -26 -15 -2 -25 -5 -27 -39 -32 -16 -2 -23 -2 -16 1 19 9 14 24
-9 24 -11 0 -18 -4 -15 -9 3 -4 -7 -6 -22 -4 -23 3 -24 2 -7 -6 14 -7 15 -10
5 -10 -8 -1 -26 -14 -40 -31 -14 -16 -30 -30 -37 -30 -6 0 -15 -5 -19 -12 -5
-8 0 -9 14 -6 25 7 29 -4 7 -22 -8 -7 -15 -19 -15 -27 0 -8 -16 -30 -35 -49
-29 -28 -37 -31 -42 -18 -5 12 -12 10 -38 -16 -25 -24 -38 -30 -55 -25 -17 5
-23 2 -27 -14 -3 -12 -9 -21 -14 -21 -9 0 -11 9 -13 54 -1 11 -8 21 -16 23
-13 4 -13 3 -1 -5 11 -8 7 -13 -20 -25 -37 -16 -109 -67 -93 -67 5 0 20 9 34
20 32 25 59 28 39 4 -11 -14 -10 -16 11 -12 19 2 25 -1 24 -14 -1 -12 10 -20
40 -27 22 -5 51 -13 64 -16 13 -5 22 -3 22 4 0 5 -8 8 -17 5 -15 -5 -16 -4 -3
5 8 6 23 8 34 5 12 -4 16 -2 12 5 -7 11 11 16 52 12 16 -1 22 4 22 19 0 12 7
28 15 36 13 14 15 13 15 -4 0 -11 3 -28 7 -38 4 -11 2 -15 -4 -11 -5 4 -19 0
-29 -8 -15 -12 -16 -16 -5 -24 8 -5 11 -16 6 -30 -5 -17 -2 -21 17 -21 17 0
19 -3 9 -9 -11 -7 -9 -11 9 -21 16 -9 19 -14 10 -20 -18 -11 5 -23 33 -15 17
5 18 4 7 -4 -12 -8 -12 -11 4 -17 14 -5 15 -9 4 -15 -10 -6 -8 -9 7 -9 11 0
27 -5 35 -11 12 -9 11 -10 -5 -4 -14 4 -17 3 -9 -5 5 -5 29 -12 52 -14 24 -2
46 -7 50 -11 4 -4 -10 -6 -30 -3 -21 2 -38 0 -38 -5 0 -6 -7 -15 -15 -21 -13
-9 -11 -11 11 -13 19 -1 23 1 13 8 -8 5 -9 9 -4 10 43 6 61 5 67 -4 5 -8 13
-6 26 6 25 23 39 22 18 -2 -17 -19 -17 -19 1 -16 10 2 24 4 31 4 7 1 10 5 7
11 -3 5 0 7 8 4 8 -3 18 -1 22 5 3 6 12 11 18 11 7 0 1 -9 -12 -19 -20 -16
-21 -19 -7 -24 10 -4 15 -3 11 3 -3 6 -2 10 4 10 8 0 23 -30 26 -50 0 -3 8
-16 17 -28 l16 -24 12 22 c6 12 9 24 6 27 -3 3 4 19 15 34 17 24 24 27 39 19
15 -8 21 -6 29 7 7 14 13 15 22 6 23 -23 62 7 54 42 -3 11 -2 14 1 8 3 -7 12
-13 19 -13 7 0 15 -5 17 -12 3 -9 6 -9 12 0 4 7 2 12 -4 12 -6 0 -8 5 -4 12 5
8 2 9 -10 5 -11 -4 -15 -3 -11 4 4 6 13 8 21 5 7 -3 16 -1 19 4 8 12 89 50
107 50 9 0 9 -3 -2 -11 -10 -7 -11 -9 -2 -7 25 7 17 23 -15 33 -39 11 -47 44
-10 40 12 -1 14 0 5 2 -9 2 -22 12 -30 20 -11 14 -11 16 4 10 26 -9 31 10 7
26 -14 10 -17 17 -9 22 7 4 17 2 23 -4 6 -6 13 -11 17 -11 5 0 5 59 0 70 -1 3
-3 22 -4 42 -2 33 -1 35 10 20 14 -18 18 -5 8 22 -3 9 -11 13 -18 9 -6 -3 -6
-1 2 8 13 14 17 69 4 69 -4 0 -14 -6 -21 -12 -11 -11 -12 -7 -6 19 6 29 4 32
-12 27 -15 -6 -16 -4 -5 7 14 16 16 43 2 34 -5 -3 -11 4 -12 17 -2 42 -3 47
-11 54 -4 4 -7 -4 -7 -19 0 -14 -4 -29 -10 -32 -5 -3 -10 -18 -11 -33 0 -24
-1 -25 -9 -7 -4 11 -4 24 1 30 5 5 9 21 9 35 0 15 3 30 7 33 3 4 7 24 9 45 1
20 0 30 -2 21 -7 -24 -46 -33 -43 -11 5 35 -12 80 -32 85 -11 3 -19 11 -18 19
2 7 -4 27 -14 43 -9 17 -16 24 -17 16 0 -8 7 -22 16 -32 10 -11 12 -19 5 -24
-6 -3 -16 5 -23 19 -6 14 -16 26 -22 26 -5 0 -23 12 -38 27 -15 15 -28 23 -28
18z"/>
<path d="M517 3083 c-14 -4 -16 -8 -6 -19 6 -8 18 -14 26 -14 8 0 11 -4 8 -10
-3 -5 -15 -10 -26 -10 -11 0 -17 -4 -14 -10 3 -5 -1 -10 -10 -10 -9 0 -14 4
-11 8 2 4 -6 9 -18 10 -15 1 -27 -7 -36 -23 -7 -14 -17 -25 -22 -25 -4 0 -8
-7 -8 -15 0 -8 -4 -15 -9 -15 -11 0 -51 -66 -51 -85 0 -7 -6 -16 -12 -18 -10
-4 -10 -7 -1 -14 9 -7 1 -22 -32 -57 -25 -26 -54 -64 -64 -85 -19 -36 -55
-161 -49 -166 6 -5 174 37 201 51 16 8 34 14 40 13 7 0 3 -4 -8 -9 -17 -7 -15
-9 13 -9 33 -1 39 -16 13 -37 -11 -9 -10 -13 5 -28 9 -10 18 -33 18 -52 1 -18
7 -39 13 -45 14 -14 36 -2 29 16 -3 8 2 19 10 26 10 8 11 15 4 24 -8 9 -6 14
5 19 9 3 13 10 10 16 -4 6 11 10 39 10 36 0 46 4 46 16 0 10 6 14 15 10 18 -7
20 10 3 17 -10 4 -10 8 1 15 11 8 10 12 -8 21 -31 17 -28 43 4 35 32 -8 33 11
3 37 -13 10 -17 18 -10 19 6 0 12 -4 12 -10 0 -5 11 -12 25 -16 14 -3 25 -10
25 -15 0 -5 7 -9 15 -9 8 0 15 -6 15 -14 0 -7 7 -19 15 -26 25 -21 71 18 67
56 -2 16 -4 37 -5 46 -1 13 -7 16 -26 11 -17 -4 -22 -2 -17 6 4 6 15 11 24 11
9 0 -7 11 -35 25 -29 13 -53 28 -53 33 0 5 -10 13 -22 17 -14 4 -18 8 -11 11
7 3 25 -3 40 -14 16 -11 39 -23 52 -27 21 -6 22 -5 10 7 -7 8 -20 15 -29 14
-8 -1 -16 9 -18 22 -3 21 -17 27 -52 22 -10 -1 -9 3 5 14 l20 15 -20 2 c-12 0
-7 5 15 11 23 6 36 6 38 0 2 -7 13 -7 31 -1 23 8 27 15 23 34 -2 15 0 25 7 25
7 0 10 4 6 9 -3 6 4 19 17 30 12 12 19 23 16 27 -4 3 -16 -4 -27 -15 -21 -21
-88 -31 -76 -11 10 16 -7 12 -19 -5 -10 -13 -15 -12 -43 1 -18 9 -31 20 -28
24 3 5 -10 17 -28 29 -17 11 -27 21 -22 21 6 0 16 9 23 20 11 19 10 20 -25 19
-21 -1 -46 -3 -56 -6z"/>
<path d="M3460 2858 c0 -10 7 -21 15 -24 8 -4 13 -10 10 -15 -3 -4 -12 -6 -21
-2 -12 4 -14 0 -8 -23 4 -16 7 -33 6 -39 0 -5 -3 -77 -7 -158 -5 -137 -4 -148
12 -145 17 3 33 43 35 91 1 15 5 30 10 33 4 3 8 18 8 35 0 16 3 29 8 29 4 0 8
12 9 26 0 15 6 30 13 34 9 6 9 9 -1 12 -11 4 -11 10 -3 24 15 26 1 62 -38 95
-17 15 -28 31 -25 36 3 5 0 10 -8 10 -8 0 -15 -9 -15 -19z"/>
<path d="M815 2614 c-22 -18 -48 -34 -57 -34 -10 0 -18 -5 -18 -11 0 -6 7 -8
17 -5 15 6 15 4 -2 -14 -18 -19 -18 -20 1 -20 15 0 16 -2 5 -9 -7 -5 -11 -13
-7 -19 3 -5 -1 -15 -10 -22 -12 -11 -12 -15 -2 -21 9 -6 5 -9 -12 -9 -23 -1
-23 -2 -8 -14 10 -7 19 -23 21 -34 2 -12 6 -25 10 -28 4 -4 2 -13 -4 -20 -13
-16 -1 -64 17 -64 18 0 18 -8 -1 -26 -21 -21 -19 -37 4 -31 15 4 18 1 14 -12
-3 -9 -11 -22 -17 -30 -9 -11 -6 -13 14 -7 24 6 24 6 -2 -9 -32 -18 -35 -30
-12 -39 8 -3 12 -11 8 -17 -5 -9 1 -10 22 -5 l29 7 -24 -17 c-19 -14 -28 -15
-42 -6 -10 7 -25 12 -33 12 -8 0 -16 7 -20 15 -4 11 -22 15 -68 15 -52 0 -67
4 -81 20 -10 12 -15 25 -12 29 2 5 -4 11 -15 14 -17 4 -18 9 -10 38 8 27 6 37
-9 53 -13 15 -17 31 -14 52 4 25 0 35 -18 48 -18 12 -25 13 -28 4 -2 -7 -9
-16 -15 -20 -7 -5 -7 -8 3 -8 7 0 11 -6 7 -15 -3 -8 -1 -15 3 -15 16 0 -1 -40
-20 -51 -18 -9 -18 -11 -3 -35 17 -24 16 -25 -26 -41 -38 -15 -40 -18 -20 -25
17 -6 20 -11 11 -22 -14 -16 -4 -26 26 -26 20 0 22 -3 13 -19 -13 -26 -13 -31
5 -31 28 0 15 -26 -22 -45 -21 -11 -40 -21 -43 -22 -3 -2 -15 5 -25 14 -11 10
-27 18 -35 18 -9 0 -14 7 -12 19 2 11 -1 17 -10 14 -12 -4 -26 13 -48 60 -5
13 -14 21 -19 18 -11 -7 -23 34 -27 89 -1 22 -3 45 -5 50 -1 6 2 19 6 29 5 11
3 32 -3 50 -10 25 -9 32 4 39 12 7 13 12 3 23 -6 7 -9 20 -6 29 4 8 2 17 -3
20 -20 13 -27 -44 -23 -185 5 -162 28 -281 65 -331 28 -38 106 -79 151 -79 19
0 53 7 76 15 45 16 93 55 75 62 -16 5 -5 43 12 43 8 0 14 5 14 10 0 6 10 10
23 10 25 0 63 20 38 20 -8 0 -11 3 -7 7 9 9 136 10 130 1 -3 -4 5 -8 18 -9
l23 0 -22 -16 c-32 -22 -29 -37 5 -20 15 7 42 21 60 30 l33 17 -20 -29 c-27
-38 -26 -45 5 -37 19 5 24 4 18 -5 -5 -9 -2 -10 9 -6 10 3 17 3 17 -1 0 -11
58 -8 70 4 9 9 4 13 -15 18 -25 6 -26 8 -10 20 13 10 18 29 19 84 1 40 -3 72
-7 72 -5 0 -6 11 -3 25 5 20 3 23 -11 18 -13 -5 -15 -3 -8 13 4 10 9 44 10 74
5 84 14 171 20 180 3 4 -8 6 -25 4 -24 -4 -29 -2 -24 11 4 9 14 15 23 14 47
-4 52 6 20 42 -11 13 -18 19 -15 12 8 -16 -4 -43 -19 -43 -7 0 -20 -10 -29
-22 -9 -13 -14 -17 -10 -9 4 8 8 29 10 48 2 34 2 34 -17 17 -23 -20 -25 -36
-4 -28 8 4 15 1 15 -5 0 -6 -4 -11 -10 -11 -5 0 -10 -7 -10 -15 0 -9 -12 -20
-26 -26 -32 -11 -40 -7 -19 11 8 7 15 17 15 23 0 7 -4 7 -12 -1 -27 -27 -28
-9 0 26 16 20 27 43 25 50 -3 7 1 19 7 28 24 28 5 22 -35 -12z"/>
<path d="M2741 2194 c-17 -22 -19 -30 -9 -48 8 -15 13 -17 16 -7 2 7 -2 17 -9
22 -11 7 -9 10 8 15 13 4 20 11 16 20 -3 8 0 14 6 14 6 0 11 -5 11 -11 0 -6 6
-7 13 -2 6 4 4 -6 -7 -22 -17 -26 -17 -29 -2 -40 22 -16 20 -22 -6 -21 -18 1
-24 -5 -26 -26 -3 -23 1 -28 19 -28 12 0 31 8 42 18 20 17 20 17 2 -10 -10
-17 -13 -28 -6 -28 6 0 11 -7 11 -15 0 -8 -6 -14 -12 -12 -7 1 -12 -4 -10 -11
1 -8 -2 -11 -7 -8 -20 13 -124 18 -117 7 4 -6 3 -11 -3 -11 -5 0 -12 4 -15 9
-10 16 -43 19 -43 4 0 -8 6 -12 12 -9 7 2 20 -9 30 -26 l17 -30 -26 17 c-15
10 -29 15 -33 11 -3 -3 -1 -6 5 -6 6 0 17 -10 23 -22 9 -19 9 -21 -2 -10 -7 6
-24 12 -38 12 -24 -1 -25 -2 -8 -14 18 -14 24 -32 7 -21 -5 3 -15 3 -22 -1 -8
-5 -6 -10 8 -15 12 -6 5 -7 -22 -5 -23 2 -51 9 -62 15 -26 14 -35 1 -26 -35 5
-19 4 -25 -5 -20 -6 4 -9 12 -6 17 4 5 2 9 -4 9 -6 0 -8 7 -5 15 4 9 -1 18
-12 22 -15 6 -15 7 6 15 14 5 28 4 36 -3 11 -9 14 -9 14 0 0 7 5 9 13 5 9 -6
9 -5 0 7 -6 8 -11 18 -11 24 0 5 -5 11 -11 13 -6 2 -11 -1 -11 -6 0 -5 -7 -12
-15 -16 -25 -9 -17 10 10 24 13 7 22 17 19 22 -6 10 10 11 20 1 15 -15 41 -11
63 12 17 17 21 25 12 31 -7 4 -9 3 -6 -3 4 -6 0 -13 -7 -16 -8 -3 -17 -3 -19
1 -2 4 -2 1 -1 -5 2 -7 -1 -13 -6 -13 -6 0 -10 8 -10 18 0 18 -20 41 -50 57
-12 6 -13 5 -2 -6 17 -18 15 -34 -3 -19 -8 7 -15 9 -15 4 -1 -5 -7 2 -15 16
-12 21 -15 23 -20 8 -4 -9 -13 -14 -21 -11 -8 3 -14 -1 -14 -11 0 -9 6 -13 14
-10 8 3 17 0 21 -6 4 -6 15 -8 26 -5 23 8 25 -7 4 -25 -9 -7 -27 -10 -45 -7
-16 4 -32 2 -35 -3 -3 -5 1 -7 9 -4 10 4 14 0 13 -14 -1 -17 -4 -19 -21 -10
-13 7 -30 7 -57 -2 -53 -18 -51 -36 3 -31 24 3 31 -16 8 -22 -11 -3 -23 -1
-26 4 -7 12 -44 11 -44 -1 0 -5 8 -10 18 -10 10 -1 5 -6 -13 -14 -16 -7 -36
-11 -44 -8 -10 4 -13 1 -8 -12 5 -12 3 -16 -5 -13 -7 2 -18 -3 -23 -10 -9 -12
-11 -11 -12 6 -1 10 4 22 11 24 8 3 13 22 13 48 0 40 0 41 -13 18 -7 -13 -8
-25 -3 -27 10 -4 13 -32 3 -32 -3 0 -12 7 -21 15 -8 8 -20 12 -26 8 -8 -5 -8
-8 1 -11 8 -2 4 -11 -10 -23 -25 -20 -18 -25 14 -8 16 9 19 8 16 -3 -3 -7 -19
-14 -37 -16 -18 -2 -41 -12 -52 -23 -24 -24 -24 -30 -1 -23 9 2 7 -1 -5 -7
-27 -14 -31 -31 -5 -22 10 4 14 2 9 -3 -5 -5 -19 -9 -30 -9 -17 0 -21 -5 -20
-22 1 -11 -4 -26 -11 -32 -15 -13 -10 -51 8 -63 5 -4 -10 -5 -35 -2 -43 4 -37
-4 15 -20 14 -5 16 -9 7 -20 -6 -7 -8 -15 -6 -18 3 -3 1 -18 -5 -33 -8 -20
-14 -25 -23 -17 -8 7 -18 7 -27 2 -8 -6 -28 -10 -43 -10 -16 0 -26 -4 -22 -10
3 -5 12 -7 20 -3 8 3 15 0 15 -6 0 -6 -13 -11 -30 -11 -24 0 -28 3 -23 18 6
16 5 16 -14 0 -11 -10 -35 -18 -54 -19 -32 -1 -32 -2 -9 -9 14 -4 45 -9 70
-10 45 -2 45 -2 11 -10 -18 -4 -40 -15 -49 -24 -15 -15 -15 -16 1 -16 14 0 16
-4 8 -18 -6 -10 -7 -28 -4 -40 3 -14 1 -22 -7 -22 -7 0 -6 -6 4 -16 9 -8 17
-22 17 -30 3 -31 5 -35 18 -43 7 -5 10 -14 7 -20 -4 -6 -3 -11 2 -11 12 0 44
-69 37 -81 -4 -5 1 -12 9 -15 9 -3 16 -13 16 -21 0 -8 5 -11 10 -8 6 3 10 -1
10 -10 0 -11 5 -15 14 -12 19 7 54 -24 48 -42 -3 -8 0 -11 7 -7 6 4 11 3 11
-3 0 -5 15 -11 33 -13 22 -2 31 -7 29 -18 -2 -8 -1 -12 3 -8 4 3 21 0 40 -7
18 -8 35 -11 39 -8 3 4 6 1 6 -5 0 -9 15 -10 63 -3 5 0 6 5 3 10 -8 13 14 28
52 36 18 4 31 9 28 13 -3 3 -2 10 3 16 4 6 11 18 14 27 4 13 1 16 -16 12 -16
-4 -8 8 27 41 39 35 53 43 63 34 8 -6 12 -17 9 -25 -8 -21 8 -15 23 8 12 20
11 21 -4 15 -14 -5 -16 -4 -7 7 7 8 26 13 42 12 17 -1 34 3 37 8 4 6 1 7 -7 2
-10 -6 -12 -4 -6 10 6 16 4 16 -10 4 -14 -11 -18 -12 -22 -1 -3 10 -11 7 -29
-10 l-26 -23 12 23 c12 22 11 23 -8 13 -11 -6 -26 -11 -33 -10 -8 0 -6 3 4 7
9 4 27 22 40 41 13 19 30 37 38 39 9 3 5 -6 -9 -22 -14 -14 -22 -29 -18 -32 6
-6 14 0 51 44 16 18 16 22 4 17 -9 -4 -19 -1 -23 5 -5 8 -11 8 -21 -1 -8 -6
-14 -8 -14 -4 0 9 31 34 43 35 5 0 5 -5 1 -12 -4 -7 -3 -8 5 -4 6 4 9 16 6 26
-3 10 -1 21 4 25 7 3 8 0 5 -9 -3 -9 -2 -16 4 -16 6 0 12 5 14 12 3 9 6 9 12
0 4 -7 2 -12 -3 -12 -6 0 -11 -7 -11 -16 0 -16 19 -15 66 3 12 4 15 3 10 -5
-4 -8 0 -12 11 -12 14 0 12 -3 -7 -14 -14 -7 -30 -9 -35 -5 -6 4 -17 4 -25 -1
-12 -7 -12 -12 -2 -22 8 -8 15 -9 20 -3 11 15 34 17 30 3 -3 -7 -9 -13 -15
-13 -5 0 -17 -8 -27 -18 -10 -9 -13 -17 -8 -17 5 0 9 -6 9 -12 0 -7 4 -20 7
-29 7 -15 -26 -64 -36 -53 -3 3 -8 -2 -12 -11 -3 -9 -2 -13 4 -10 6 3 10 1 10
-5 0 -7 6 -8 19 0 14 7 22 7 27 -1 4 -8 9 -7 15 2 7 12 9 12 9 0 0 -8 6 -11
18 -6 9 4 34 8 55 10 51 5 107 32 108 53 0 10 3 12 6 4 2 -6 10 -9 16 -5 23
14 48 13 54 -3 5 -13 7 -13 14 -2 7 11 9 10 9 -1 0 -11 5 -10 19 5 10 10 16
24 14 30 -2 7 0 15 5 18 6 3 12 -1 15 -8 4 -10 15 -13 31 -10 15 2 26 0 26 -6
0 -5 5 -10 10 -10 6 0 5 8 -2 19 -7 11 -16 17 -21 14 -13 -8 10 33 30 53 17
17 16 17 -12 11 -25 -6 -27 -5 -12 4 11 6 26 12 35 14 10 1 16 8 14 15 -1 6 5
10 15 8 10 -2 25 3 33 12 8 8 12 11 8 6 -9 -12 41 -76 60 -76 12 0 11 4 -6 20
-12 12 -22 22 -22 24 0 1 15 1 33 -1 29 -3 26 1 -13 13 -13 5 -13 6 0 14 13 9
13 10 0 11 -8 1 -17 1 -20 1 -3 0 -6 8 -7 18 -2 18 -1 18 18 -1 20 -20 49 -26
49 -10 0 5 10 7 23 4 22 -5 22 -5 2 10 -20 16 -20 16 2 17 12 0 26 -6 30 -12
4 -7 19 -19 32 -26 12 -8 20 -9 16 -3 -3 6 0 11 7 12 7 0 -1 7 -19 15 -55 24
-52 37 8 30 48 -6 52 -5 36 8 -14 10 -15 15 -5 19 10 4 10 6 0 6 -10 1 -10 4
0 15 7 8 17 11 22 8 5 -3 6 0 2 6 -4 6 -14 8 -24 5 -16 -6 -16 -5 0 13 24 27
21 82 -5 90 -20 6 -20 7 -3 20 10 7 15 18 11 24 -5 8 -11 7 -23 -2 -11 -8 -10
-4 3 11 19 22 19 23 0 37 -10 8 -15 14 -10 14 5 0 0 6 -10 14 -10 7 -16 19
-13 27 10 26 7 34 -12 31 -21 -3 -26 8 -11 23 6 6 2 19 -10 34 -16 19 -20 20
-25 7 -5 -12 -9 -13 -19 -3 -9 8 -10 16 -3 24 7 9 2 14 -17 19 -17 4 -23 9
-15 14 8 5 9 10 2 14 -6 3 -8 14 -5 24 5 20 -34 75 -47 67 -5 -3 -11 4 -15 15
-4 11 -11 18 -16 15 -5 -4 -12 1 -15 9 -3 9 -11 16 -18 16 -6 0 -24 11 -39 26
-15 14 -32 22 -37 19 -6 -3 -10 1 -10 9 0 10 -6 13 -17 9 -13 -5 -15 -2 -10
11 7 18 -24 56 -45 56 -4 0 -8 7 -8 15 0 9 6 12 18 8 9 -3 14 -3 11 1 -11 11
-48 15 -54 5 -4 -5 -16 -9 -28 -8 -21 0 -21 1 -2 9 11 5 16 9 11 9 -5 1 -1 10
9 21 17 19 17 20 -1 21 -10 0 -29 2 -41 5 -15 2 -28 -5 -42 -22z"/>
<path d="M750 1973 c0 -4 7 -17 15 -27 8 -11 13 -27 10 -36 -7 -21 25 -38 90
-49 28 -4 55 -9 60 -11 19 -5 35 0 35 10 0 6 -10 11 -22 11 -21 1 -21 2 -3 6
22 6 35 21 35 41 0 7 -5 10 -12 6 -6 -4 -8 -3 -5 4 4 5 4 17 1 26 -5 14 -8 14
-30 -1 -26 -17 -33 -39 -9 -30 8 4 17 2 20 -4 11 -17 -25 -22 -56 -6 -29 14
-30 16 -13 26 17 11 17 11 -3 6 -12 -3 -32 0 -45 8 -30 19 -68 31 -68 20z"/>
<path d="M795 1681 c-3 -6 0 -20 7 -31 10 -16 10 -22 0 -28 -9 -6 -7 -13 8
-30 23 -24 26 -42 8 -42 -17 0 -18 -82 -1 -93 14 -9 45 -69 42 -83 -5 -26 4
-34 36 -34 38 0 40 2 25 31 -8 13 -7 19 0 19 7 0 8 6 0 19 -13 26 -13 31 5 31
8 0 15 -4 15 -10 0 -5 5 -10 10 -10 21 0 9 30 -18 44 -37 19 -61 46 -40 46 8
0 20 -6 27 -12 10 -11 11 -9 5 7 -4 11 -12 26 -18 34 -9 11 -7 13 13 6 18 -5
14 2 -20 35 -36 35 -39 41 -20 35 13 -4 39 -22 57 -41 19 -18 34 -28 34 -23 0
6 9 9 19 6 14 -3 18 -1 14 9 -3 8 -13 14 -22 14 -10 0 -30 14 -46 30 -16 17
-25 30 -21 30 5 0 -2 8 -15 19 -29 22 -95 36 -104 22z"/>
<path d="M840 1237 c0 -13 5 -28 11 -34 8 -8 6 -15 -10 -25 -11 -7 -21 -17
-21 -22 0 -4 7 -3 15 4 9 7 19 10 23 6 4 -4 -1 -12 -11 -17 -23 -13 -22 -29 2
-29 27 0 37 -57 14 -82 -14 -16 -15 -23 -5 -38 7 -11 8 -21 2 -25 -5 -3 -12 0
-16 6 -4 7 -15 -7 -26 -36 -10 -26 -17 -50 -14 -52 2 -2 20 -5 40 -6 26 -1 36
-6 34 -17 -3 -16 46 -70 62 -70 6 0 10 -7 10 -15 0 -8 -7 -15 -15 -15 -8 0
-17 -11 -21 -25 -9 -35 3 -44 15 -12 7 18 15 25 26 21 8 -3 12 -10 9 -15 -3
-6 0 -16 6 -24 10 -12 9 -16 -6 -22 -23 -8 -48 -41 -49 -65 -1 -13 6 -18 24
-19 24 0 24 -1 6 -9 -11 -5 -16 -9 -11 -9 5 -1 1 -10 -9 -21 -18 -19 -17 -20
4 -20 12 0 20 -4 16 -10 -3 -5 -3 -20 1 -34 4 -17 11 -23 22 -19 14 4 14 3 3
-5 -15 -10 -36 -6 -59 11 -7 5 -16 7 -20 3 -11 -11 -9 -56 2 -56 10 0 -1 -14
-12 -16 -4 0 -20 -6 -35 -12 -41 -17 -42 -15 -8 23 36 42 37 45 11 45 -13 0
-18 -5 -14 -15 4 -9 0 -15 -9 -15 -9 0 -17 7 -19 15 -3 13 -8 13 -40 -3 -22
-12 -42 -16 -50 -11 -21 14 -25 11 -36 -20 -6 -16 -20 -32 -31 -36 -12 -3 -21
-10 -21 -15 0 -5 7 -7 15 -4 8 4 22 1 30 -6 16 -13 51 -5 78 18 16 14 17 13
17 -11 0 -15 -6 -27 -12 -27 -7 0 -5 -5 5 -11 13 -7 25 -5 47 8 17 9 30 21 30
26 0 5 8 6 19 2 21 -6 38 21 18 28 -7 2 5 4 26 4 33 -1 37 -4 37 -28 0 -15 7
-29 15 -33 10 -4 15 1 15 14 0 11 7 20 15 20 8 0 15 5 15 11 0 15 39 49 57 49
23 0 14 -19 -21 -42 -27 -18 -34 -29 -33 -50 2 -32 20 -37 37 -10 11 16 11 16
6 0 -7 -23 26 -25 44 -3 16 19 31 20 24 1 -3 -7 -20 -18 -37 -23 -25 -7 -31
-14 -29 -31 2 -15 -4 -25 -22 -34 -36 -16 -32 -29 7 -21 26 5 30 3 19 -8 -19
-21 -14 -30 14 -23 24 6 25 5 14 -15 -10 -20 -10 -21 9 -9 13 8 17 16 11 22
-14 14 -12 29 3 23 17 -7 63 28 49 37 -6 3 -13 2 -17 -4 -3 -5 -16 -10 -28
-10 -20 1 -20 2 6 16 28 15 34 28 17 39 -19 12 -10 23 35 45 25 12 45 24 45
26 0 3 -4 2 -10 -1 -16 -10 -12 7 6 27 14 14 14 20 4 33 -10 12 -10 15 1 15 9
1 5 8 -10 20 -13 11 -20 20 -16 20 4 0 2 6 -4 14 -9 10 -8 15 4 20 20 7 19 26
-2 26 -16 0 -16 1 -1 16 15 15 15 18 0 35 -9 10 -22 19 -29 19 -7 0 -10 6 -7
14 3 8 -6 18 -25 25 -23 10 -29 19 -28 39 2 25 0 27 -35 24 -40 -4 -52 12 -17
23 20 7 19 7 -5 30 -22 21 -23 24 -8 28 16 4 16 5 0 6 -11 1 -15 6 -12 16 4 8
-1 17 -10 21 -15 6 -15 8 1 20 16 12 15 13 -12 14 -24 0 -30 4 -31 23 0 12 -4
31 -8 42 -6 14 -5 16 2 6 6 -8 12 -9 16 -3 3 5 -1 16 -10 23 -14 11 -13 14 8
22 l23 9 -23 9 c-31 12 -51 57 -31 70 12 8 11 11 -3 23 -24 17 -23 25 5 36 21
8 20 9 -11 16 -21 4 -29 10 -22 14 18 11 3 30 -23 30 -18 0 -19 2 -7 10 29 18
14 60 -21 60 -13 0 -19 -7 -19 -23z"/>
<path d="M2805 1112 c-16 -8 -32 -18 -35 -21 -3 -3 -16 -7 -30 -9 -13 -1 -28
-8 -32 -15 -4 -6 -8 -7 -8 -2 0 6 -8 1 -17 -10 -13 -17 -15 -17 -10 -2 6 15 1
17 -39 14 -26 -3 -50 -11 -55 -18 -7 -11 -9 -9 -10 6 0 16 -3 14 -14 -10 l-13
-30 -5 30 c-4 28 -5 28 -12 8 -6 -20 -9 -20 -22 -8 -17 18 -33 19 -33 3 0 -6
-10 -3 -22 8 -12 10 -18 13 -13 5 6 -11 4 -13 -9 -8 -12 5 -19 0 -25 -16 -12
-32 -5 -37 45 -32 28 3 43 1 39 -5 -9 -15 2 -12 19 6 10 9 16 11 16 4 0 -7 8
-9 23 -5 18 6 20 5 10 -6 -18 -18 -16 -34 2 -19 8 7 15 9 15 4 0 -4 6 0 13 10
11 15 18 16 32 9 10 -6 27 -8 38 -5 16 4 19 2 14 -12 -5 -13 -2 -15 18 -10 20
5 25 2 26 -12 0 -16 2 -15 10 4 5 13 13 21 18 17 5 -3 13 0 17 6 4 8 9 7 15
-2 5 -8 9 -9 9 -3 0 6 14 12 30 13 69 5 80 6 80 13 0 12 60 39 70 33 6 -3 10
-1 10 4 0 6 6 11 14 11 7 0 13 10 12 23 -1 17 -7 22 -31 23 -16 0 -36 -4 -42
-9 -9 -7 -13 -4 -13 8 0 9 -6 15 -12 12 -7 -2 -24 -1 -38 3 -15 4 -37 0 -55
-8z"/>
</g>
</svg>
